<svg xmlns="http://www.w3.org/2000/svg" viewBox="0 0 820 560">
<defs><linearGradient id="b" x1="0" y1="0" x2="1" y2="1"><stop stop-color="#eef1e0"/><stop offset=".55" stop-color="#f6dfb5"/><stop offset="1" stop-color="#b7523a"/></linearGradient><filter id="d"><feDropShadow dx="0" dy="16" stdDeviation="15" flood-opacity=".21"/></filter></defs>
<rect width="820" height="560" rx="36" fill="url(#b)"/>
<circle cx="621" cy="123" r="88" fill="#fff2c6" opacity=".8"/>
<g filter="url(#d)">
<path d="M142 365c96-34 133-20 190 23 30 22 55 40 95 43 38 2 68-12 100-40 47-41 79-63 151-36-18 87-88 142-203 151H330c-104-9-169-62-188-141z" fill="#8b3a25"/>
<path d="M205 337c49 13 83 37 126 69" stroke="#f2be7a" stroke-width="28" stroke-linecap="round" fill="none"/>
<path d="M615 337c-48 13-83 37-126 69" stroke="#f2be7a" stroke-width="28" stroke-linecap="round" fill="none"/>
<path d="M371 344c30 17 48 17 78 0 20 54-11 86-39 91-28-5-59-37-39-91z" fill="#ffe2a0"/>
<path d="M410 243c65 56 33 94 0 100-32-6-63-44 0-100z" fill="#e08b34"/>
<path d="M410 278c31 31 16 52 0 57-15-5-30-26 0-57z" fill="#fff3b1"/>
</g>
<g fill="#fff7dd" opacity=".55"><circle cx="117" cy="142" r="5"/><circle cx="202" cy="206" r="4"/><circle cx="704" cy="288" r="5"/><circle cx="302" cy="117" r="5"/></g>
</svg>
