<svg xmlns="http://www.w3.org/2000/svg" viewBox="0 0 820 560">
<defs><linearGradient id="bg" x1="0" y1="0" x2="1" y2="1"><stop stop-color="#fffaf0"/><stop offset="1" stop-color="#ead8bd"/></linearGradient><filter id="sh"><feDropShadow dx="0" dy="16" stdDeviation="14" flood-opacity=".18"/></filter></defs>
<rect width="820" height="560" rx="36" fill="url(#bg)"/>
<g opacity=".18" fill="#7b1e22"><circle cx="92" cy="92" r="42"/><circle cx="738" cy="456" r="58"/><circle cx="672" cy="92" r="28"/><circle cx="165" cy="430" r="28"/></g>
<g filter="url(#sh)">
<path d="M326 229c15-55 153-55 168 0-20 19-148 19-168 0z" fill="#d18a36"/>
<path d="M285 256c38-39 212-39 250 0-12 151-42 218-125 218s-113-67-125-218z" fill="#b95a31"/>
<path d="M318 268c40 24 142 24 184 0" stroke="#fff0bd" stroke-width="16" stroke-linecap="round" opacity=".72"/>
<path d="M349 334h122" stroke="#fff0bd" stroke-width="10" stroke-linecap="round" opacity=".55"/>
<path d="M365 204c-50-33-51-77-28-112 45 22 74 55 75 101 3-53 35-86 78-107 23 38 17 83-30 118z" fill="#536b3e"/>
<circle cx="410" cy="259" r="37" fill="#fff0bd" opacity=".75"/>
<path d="M392 259c10 13 26 13 36 0" stroke="#8f3d26" stroke-width="8" stroke-linecap="round" fill="none"/>
</g>
</svg>
